<svg xmlns="http://www.w3.org/2000/svg" viewBox="0 0 128 128">
  <path d="M64 0C28.7 0 0 28.7 0 64s28.7 64 64 64 64-28.7 64-64S99.3 0 64 0z" fill="#db7093"/>
  <path d="M89.6 62.4c-1.8-3.2-4.6-5.4-8-6.8 2.8-1.6 4.8-3.8 6.2-6.4 1.4-2.6 2-5.6 2-8.8 0-4.4-1.2-8-3.4-11s-5.4-5.2-9.4-6.6c-4-1.4-8.6-2.2-14-2.2H38v7.2h7.2v51.8H38v7.2h25.2c5.4 0 10.2-.8 14.2-2.4s7.2-4 9.4-7.2c2.2-3.2 3.4-7 3.4-11.4 0-3.6-.8-6.8-2.6-10zM55.8 28.8h7c4.4 0 7.8 1 10 3s3.4 4.8 3.4 8.6c0 3.6-1.2 6.4-3.4 8.4-2.2 2-5.6 3-10 3h-7V28.8zm17.8 54.8c-2.4 2.2-5.8 3.2-10.4 3.2h-7.4v-24h7.4c4.6 0 8 1.2 10.4 3.4 2.4 2.2 3.4 5.4 3.4 9.4.2 3.8-1 6.8-3.4 8z" fill="#fff"/>
</svg>
