<svg version="1.1" id="Layer_1" xmlns="http://www.w3.org/2000/svg" xmlns:xlink="http://www.w3.org/1999/xlink" x="0px" y="0px"
	 width="100%" viewBox="0 0 1024 1024" enable-background="new 0 0 1024 1024" xml:space="preserve">
<path fill="#0F1D2A" opacity="1.000000" stroke="none" 
	d="
M445.000000,1025.000000 
	C296.666656,1025.000000 148.833328,1025.000000 1.000000,1025.000000 
	C1.000000,683.666687 1.000000,342.333344 1.000000,1.000000 
	C342.333344,1.000000 683.666687,1.000000 1025.000000,1.000000 
	C1025.000000,342.333344 1025.000000,683.666687 1025.000000,1025.000000 
	C831.833313,1025.000000 638.666687,1025.000000 445.000000,1025.000000 
M329.013580,445.751312 
	C325.334442,446.560760 321.655304,447.370209 317.214508,448.183838 
	C310.711945,450.230011 304.070251,451.917267 297.727631,454.375977 
	C197.913437,493.069061 158.370697,607.301331 204.799667,699.110107 
	C246.506912,781.582031 345.315887,816.805359 431.057831,780.392944 
	C456.164978,769.730530 477.617065,754.088135 495.556732,732.626038 
	C498.650696,728.979309 501.744629,725.332581 505.326508,722.201111 
	C509.326569,727.103271 513.043762,732.271973 517.370972,736.865967 
	C556.283997,778.179138 604.180115,797.345093 660.812500,794.103943 
	C698.959045,791.920715 733.134338,778.650391 761.912292,753.574707 
	C808.505005,712.976257 829.316040,661.123718 822.961182,599.768616 
	C816.497437,537.362000 784.007690,491.497375 728.828186,461.781586 
	C713.462463,453.506653 696.821533,448.708588 679.815125,444.112335 
	C679.450989,428.329956 680.799255,412.286957 678.443054,396.807800 
	C663.857971,300.990356 575.334045,234.224701 479.814301,249.033966 
	C420.984161,258.154907 377.023163,289.312531 349.173523,342.093689 
	C332.241119,374.184265 327.043182,408.785004 329.977631,445.234436 
	C329.928680,445.398315 329.879730,445.562225 329.013580,445.751312 
z"/>
<path fill="#1FB552" opacity="1.000000" stroke="none" 
	d="
M679.836121,445.043243 
	C696.821533,448.708588 713.462463,453.506653 728.828186,461.781586 
	C784.007690,491.497375 816.497437,537.362000 822.961182,599.768616 
	C829.316040,661.123718 808.505005,712.976257 761.912292,753.574707 
	C733.134338,778.650391 698.959045,791.920715 660.812500,794.103943 
	C604.180115,797.345093 556.283997,778.179138 517.370972,736.865967 
	C513.043762,732.271973 509.326569,727.103271 505.081146,721.738770 
	C504.835785,721.276367 504.840820,720.866943 505.106354,720.665894 
	C520.064758,699.334290 529.072693,675.877441 534.000793,650.730530 
	C537.493164,632.909668 537.205688,614.960632 536.446777,596.965698 
	C575.190674,590.507935 607.261597,572.359680 633.561584,544.115845 
	C659.516968,516.242004 674.637573,483.111420 679.422241,445.195435 
	C679.554504,445.130341 679.836121,445.043243 679.836121,445.043243 
z"/>
<path fill="#0099F5" opacity="1.000000" stroke="none" 
	d="
M494.987946,732.970276 
	C477.617065,754.088135 456.164978,769.730530 431.057831,780.392944 
	C345.315887,816.805359 246.506912,781.582031 204.799667,699.110107 
	C158.370697,607.301331 197.913437,493.069061 297.727631,454.375977 
	C304.070251,451.917267 310.711945,450.230011 317.603455,448.595032 
	C321.835693,483.391541 333.803802,514.559509 355.523773,541.624207 
	C372.169830,562.366455 391.932953,579.709961 416.235016,590.865356 
	C429.015015,596.731689 442.732635,600.565063 456.061432,605.217468 
	C458.641144,606.117981 460.975708,606.484680 460.898254,610.281433 
	C460.681885,620.885315 460.287506,631.541992 461.052124,642.098999 
	C463.481201,675.637451 475.097992,705.882874 494.987946,732.970276 
z"/>
<path fill="#97CF01" opacity="1.000000" stroke="none" 
	d="
M679.825623,444.577789 
	C679.836121,445.043243 679.554504,445.130341 678.972534,445.127472 
	C677.399353,445.001129 676.405640,444.894592 675.417175,444.751801 
	C639.156921,439.512817 604.503479,444.843475 571.317017,460.321594 
	C553.467285,468.646667 537.836060,480.201965 523.384705,493.328583 
	C516.432800,499.643219 510.498016,507.077454 503.860901,513.768311 
	C503.177704,513.033630 502.709381,512.556274 502.298462,512.033875 
	C464.779114,464.338989 415.524902,441.549225 355.026947,442.859009 
	C346.732452,443.038574 338.457123,444.104370 330.172943,444.759857 
	C327.043182,408.785004 332.241119,374.184265 349.173523,342.093689 
	C377.023163,289.312531 420.984161,258.154907 479.814301,249.033966 
	C575.334045,234.224701 663.857971,300.990356 678.443054,396.807800 
	C680.799255,412.286957 679.450989,428.329956 679.825623,444.577789 
z"/>
<path fill="#00AAD9" opacity="1.000000" stroke="none" 
	d="
M330.075287,444.997131 
	C338.457123,444.104370 346.732452,443.038574 355.026947,442.859009 
	C415.524902,441.549225 464.779114,464.338989 502.298462,512.033875 
	C502.709381,512.556274 503.177704,513.033630 503.897644,514.078552 
	C504.541992,515.374390 504.907928,516.123596 504.924194,516.973999 
	C503.354370,518.143738 501.791168,518.997070 500.965027,520.313049 
	C486.341217,543.608765 476.525177,568.704346 472.471741,596.071960 
	C468.446960,595.451355 464.774109,595.128967 461.267242,594.188049 
	C426.235443,584.788452 396.604950,566.780579 372.644196,539.311707 
	C356.168732,520.424072 344.019653,499.262238 336.920654,475.296051 
	C334.045898,465.590912 332.164276,455.591614 329.830750,445.726166 
	C329.879730,445.562225 329.928680,445.398315 330.075287,444.997131 
z"/>
<path fill="#008CDF" opacity="1.000000" stroke="none" 
	d="
M329.422180,445.738739 
	C332.164276,455.591614 334.045898,465.590912 336.920654,475.296051 
	C344.019653,499.262238 356.168732,520.424072 372.644196,539.311707 
	C396.604950,566.780579 426.235443,584.788452 461.267242,594.188049 
	C464.774109,595.128967 468.446960,595.451355 472.500061,596.388000 
	C472.991058,597.138123 473.024719,597.561096 472.900024,598.369751 
	C472.570160,611.653870 471.362457,624.640320 472.449402,637.431763 
	C474.516602,661.759460 482.610229,684.470459 494.491577,705.752625 
	C497.455658,711.061890 501.365601,715.843079 504.840820,720.866943 
	C504.840820,720.866943 504.835785,721.276367 504.837189,721.481079 
	C501.744629,725.332581 498.650696,728.979309 495.272339,732.798157 
	C475.097992,705.882874 463.481201,675.637451 461.052124,642.098999 
	C460.287506,631.541992 460.681885,620.885315 460.898254,610.281433 
	C460.975708,606.484680 458.641144,606.117981 456.061432,605.217468 
	C442.732635,600.565063 429.015015,596.731689 416.235016,590.865356 
	C391.932953,579.709961 372.169830,562.366455 355.523773,541.624207 
	C333.803802,514.559509 321.835693,483.391541 317.984283,448.592926 
	C321.655304,447.370209 325.334442,446.560760 329.422180,445.738739 
z"/>
<path fill="#64C717" opacity="1.000000" stroke="none" 
	d="
M505.273865,516.872864 
	C504.907928,516.123596 504.541992,515.374390 504.139343,514.314941 
	C510.498016,507.077454 516.432800,499.643219 523.384705,493.328583 
	C537.836060,480.201965 553.467285,468.646667 571.317017,460.321594 
	C604.503479,444.843475 639.156921,439.512817 675.417175,444.751801 
	C676.405640,444.894592 677.399353,445.001129 678.840332,445.192566 
	C674.637573,483.111420 659.516968,516.242004 633.561584,544.115845 
	C607.261597,572.359680 575.190674,590.507935 536.369385,596.951538 
	C535.882446,596.942810 535.772888,597.055969 535.745483,596.653442 
	C534.510681,589.743408 533.519653,583.186707 532.056152,576.737305 
	C527.126038,555.011292 518.628113,534.846863 505.273865,516.872864 
z"/>
<path fill="#02B4D9" opacity="1.000000" stroke="none" 
	d="
M505.106354,720.665894 
	C501.365601,715.843079 497.455658,711.061890 494.491577,705.752625 
	C482.610229,684.470459 474.516602,661.759460 472.449402,637.431763 
	C471.362457,624.640320 472.570160,611.653870 473.349915,598.372681 
	C476.280151,598.039307 478.636536,597.848999 480.918671,598.176331 
	C499.271698,600.808411 517.560181,600.975769 535.772888,597.055969 
	C535.772888,597.055969 535.882446,596.942810 535.959839,596.956909 
	C537.205688,614.960632 537.493164,632.909668 534.000793,650.730530 
	C529.072693,675.877441 520.064758,699.334290 505.106354,720.665894 
z"/>
<path fill="#09BDCC" opacity="1.000000" stroke="none" 
	d="
M535.745483,596.653442 
	C517.560181,600.975769 499.271698,600.808411 480.918671,598.176331 
	C478.636536,597.848999 476.280151,598.039307 473.508301,597.986938 
	C473.024719,597.561096 472.991058,597.138123 472.929077,596.399109 
	C476.525177,568.704346 486.341217,543.608765 500.965027,520.313049 
	C501.791168,518.997070 503.354370,518.143738 504.924194,516.973999 
	C518.628113,534.846863 527.126038,555.011292 532.056152,576.737305 
	C533.519653,583.186707 534.510681,589.743408 535.745483,596.653442 
z"/>
</svg>